<svg xmlns="http://www.w3.org/2000/svg" width="1200" height="630" viewBox="0 0 1200 630">
  <defs>
    <linearGradient id="bg" x1="0%" y1="0%" x2="100%" y2="100%">
      <stop offset="0%" style="stop-color:#09090b"/>
      <stop offset="100%" style="stop-color:#18181b"/>
    </linearGradient>
    <linearGradient id="accent" x1="0%" y1="0%" x2="100%" y2="0%">
      <stop offset="0%" style="stop-color:#3b82f6"/>
      <stop offset="100%" style="stop-color:#6366f1"/>
    </linearGradient>
  </defs>

  <!-- Background -->
  <rect width="1200" height="630" fill="url(#bg)"/>

  <!-- Subtle grid pattern -->
  <pattern id="grid" width="60" height="60" patternUnits="userSpaceOnUse">
    <path d="M 60 0 L 0 0 0 60" fill="none" stroke="#ffffff08" stroke-width="1"/>
  </pattern>
  <rect width="1200" height="630" fill="url(#grid)"/>

  <!-- Blue glow top-left -->
  <ellipse cx="200" cy="150" rx="350" ry="250" fill="#3b82f620"/>

  <!-- Accent bar -->
  <rect x="80" y="200" width="5" height="180" rx="3" fill="url(#accent)"/>

  <!-- Name -->
  <text x="110" y="270" font-family="Inter, system-ui, sans-serif" font-size="64" font-weight="800" fill="#f4f4f5" letter-spacing="-1">Dohyun (Eric) Kim</text>

  <!-- Title -->
  <text x="110" y="330" font-family="Inter, system-ui, sans-serif" font-size="28" font-weight="500" fill="#a1a1aa">Computer Systems Engineering · University of Auckland</text>

  <!-- Divider -->
  <rect x="110" y="360" width="980" height="1" fill="#3f3f46"/>

  <!-- Tags -->
  <rect x="110" y="385" width="170" height="40" rx="8" fill="#3b82f618" stroke="#3b82f640" stroke-width="1"/>
  <text x="195" y="411" font-family="Inter, system-ui, sans-serif" font-size="16" font-weight="500" fill="#60a5fa" text-anchor="middle">Embedded Systems</text>

  <rect x="295" y="385" width="130" height="40" rx="8" fill="#3b82f618" stroke="#3b82f640" stroke-width="1"/>
  <text x="360" y="411" font-family="Inter, system-ui, sans-serif" font-size="16" font-weight="500" fill="#60a5fa" text-anchor="middle">Software Dev</text>

  <rect x="440" y="385" width="80" height="40" rx="8" fill="#3b82f618" stroke="#3b82f640" stroke-width="1"/>
  <text x="480" y="411" font-family="Inter, system-ui, sans-serif" font-size="16" font-weight="500" fill="#60a5fa" text-anchor="middle">Cloud</text>

  <rect x="535" y="385" width="60" height="40" rx="8" fill="#3b82f618" stroke="#3b82f640" stroke-width="1"/>
  <text x="565" y="411" font-family="Inter, system-ui, sans-serif" font-size="16" font-weight="500" fill="#60a5fa" text-anchor="middle">React</text>

  <rect x="610" y="385" width="50" height="40" rx="8" fill="#3b82f618" stroke="#3b82f640" stroke-width="1"/>
  <text x="635" y="411" font-family="Inter, system-ui, sans-serif" font-size="16" font-weight="500" fill="#60a5fa" text-anchor="middle">Java</text>

  <rect x="675" y="385" width="40" height="40" rx="8" fill="#3b82f618" stroke="#3b82f640" stroke-width="1"/>
  <text x="695" y="411" font-family="Inter, system-ui, sans-serif" font-size="16" font-weight="500" fill="#60a5fa" text-anchor="middle">C</text>

  <!-- URL -->
  <text x="110" y="520" font-family="Inter, system-ui, sans-serif" font-size="20" fill="#52525b">erick-6.github.io/edk.portfolio</text>

  <!-- Open to internships badge -->
  <rect x="830" y="490" width="280" height="48" rx="24" fill="#052e16" stroke="#16a34a40" stroke-width="1"/>
  <circle cx="860" cy="514" r="6" fill="#22c55e"/>
  <text x="876" y="520" font-family="Inter, system-ui, sans-serif" font-size="16" font-weight="500" fill="#4ade80">Open to internships</text>
</svg>
